<?xml version="1.0" encoding="utf-8"?>
<!-- Generator: Adobe Illustrator 26.0.1, SVG Export Plug-In . SVG Version: 6.00 Build 0)  -->
<svg version="1.1" id="Layer_1" xmlns="http://www.w3.org/2000/svg" xmlns:xlink="http://www.w3.org/1999/xlink" x="0px" y="0px"
	 viewBox="0 0 550 550.5" style="enable-background:new 0 0 550 550.5;" xml:space="preserve">
<path id="Path_8273" d="M116.2,89.5c1,0.5,2.2,0.6,3.2,0.3c1.1-0.4,2-1.1,2.6-2.2c0.5-1,0.6-2.2,0.3-3.2c-0.2-0.6-0.5-1.1-0.8-1.5
	c-0.4-0.4-0.8-0.8-1.3-1.1c-1-0.5-2.2-0.6-3.2-0.3c-1.1,0.4-2,1.1-2.6,2.2c-0.5,1-0.6,2.2-0.3,3.2C114.4,88,115.2,88.9,116.2,89.5
	 M96.8,110.9l16.7-16.3l-4.7-4.8L97.3,101l-4.7-4.8l10.2-10l-4.7-4.8l-10.3,10L83.6,87l10.8-10.6l-4.7-4.8L73.7,87.3L96.8,110.9
	L96.8,110.9z M71.6,95.6c-1.1,0-2.2,0.1-3.3,0.4c-1,0.3-2,0.7-2.9,1.3c-0.9,0.5-1.7,1.1-2.5,1.8c-0.7,0.7-1.4,1.3-2,2.1
	c-1.5,1.9-2.8,4-3.5,6.3c-0.7,2.1-1,4.3-0.8,6.6c0.2,2.2,0.9,4.4,2,6.3c2.5,4.3,6.5,7.5,11.2,9c2.1,0.6,4.4,0.8,6.6,0.6
	c2.2-0.3,4.3-1.1,6.2-2.2c2.1-1.3,3.9-2.9,5.4-4.8c1.4-1.8,2.5-3.8,3.1-6c0.6-2.2,0.6-4.6,0-6.9l-7.3,1.9c0.4,1.2,0.5,2.6,0.2,3.9
	c-0.3,1.3-0.9,2.6-1.8,3.7c-0.8,1-1.8,1.8-2.9,2.4c-1.1,0.6-2.3,0.9-3.6,0.9c-1.3,0.1-2.6-0.1-3.9-0.6c-2.8-1-5.1-2.9-6.6-5.3
	c-0.7-1.1-1.2-2.4-1.4-3.7c-0.4-2.6,0.3-5.2,2-7.2c0.8-1,1.7-1.8,2.8-2.4c1-0.5,2.1-0.8,3.2-0.8L71.6,95.6L71.6,95.6z M57.7,167.1
	l3.7-6.3l-20.3-12l0-0.1l27.6-0.4l4.8-8.2l-28.5-16.8l-3.7,6.3l19.8,11.7l0,0.1l-26.9,0.4l-5,8.5L57.7,167.1L57.7,167.1z
	 M46.9,193.5l8.8-21.6l-6.2-2.5l-6.1,14.8l-6.2-2.5l5.4-13.3l-6.2-2.5L31,179.1l-5.7-2.3l5.7-14.1l-6.2-2.5L16.3,181L46.9,193.5
	L46.9,193.5z M42.9,206.4l2.1-7L13.3,190l-2.1,7L42.9,206.4L42.9,206.4z M11.2,222.5l1-4.6c0.1-0.7,0.3-1.3,0.6-1.9
	c0.2-0.6,0.5-1.2,0.9-1.7c0.4-0.5,0.9-0.8,1.4-1c0.7-0.2,1.4-0.3,2.1-0.1c0.7,0.1,1.4,0.5,1.9,1c0.4,0.5,0.7,1.1,0.8,1.7
	c0.1,0.7,0.1,1.4,0,2c-0.1,0.7-0.2,1.4-0.4,2.1l-0.9,4.2L11.2,222.5L11.2,222.5z M36,235.4l1.5-7.1l-12.9-2.8l0.8-3.5l14.4-3.9
	l1.9-8.5l-15.4,5.2c0.1-2.1-0.5-4.2-1.9-5.9c-1.4-1.6-3.3-2.6-5.4-3c-1.6-0.4-3.3-0.4-4.9-0.1c-1.4,0.4-2.6,1-3.6,2
	c-1,1-1.9,2.2-2.4,3.5c-0.7,1.5-1.2,3-1.5,4.6l-2.7,12.5L36,235.4L36,235.4z M33.1,263.7l2.1-23.2l-6.7-0.6L27,255.9l-6.7-0.6
	l1.3-14.3l-6.7-0.6l-1.3,14.3l-6.1-0.5L8.8,239l-6.7-0.6l-2,22.4L33.1,263.7L33.1,263.7z M6.2,285l-0.1-3.7c0-0.7,0-1.4,0.1-2.1
	c0.1-0.7,0.2-1.4,0.5-2c0.3-0.6,0.7-1.1,1.2-1.5c0.6-0.4,1.3-0.6,2-0.6c0.7,0,1.3,0.1,1.9,0.4c0.5,0.3,0.9,0.7,1.2,1.1
	c0.3,0.5,0.5,1,0.6,1.6c0.1,0.6,0.2,1.2,0.2,1.9l0.1,4.9L6.2,285L6.2,285z M33.2,291.9l-0.1-7.3l-12.9,0.2l-0.1-5.3
	c0-1.6-0.2-3.3-0.5-4.9c-0.3-1.4-0.9-2.7-1.7-3.9c-0.8-1.1-1.9-2-3.2-2.5c-1.5-0.6-3.2-1-4.9-0.9c-1.7,0-3.3,0.3-4.9,1.1
	c-1.2,0.6-2.3,1.6-3,2.7c-0.8,1.2-1.3,2.6-1.6,4c-0.3,1.6-0.4,3.2-0.4,4.9l0.2,12.3L33.2,291.9L33.2,291.9z M38,328l-1.2-8.5
	l-14.3-5.9l12.1-9.8l-1.3-9.1l-15.6,14.2l-17-8.4l1.2,8.7l12.4,5.1l-10.5,8.6l1.3,9.1l14.1-13L38,328L38,328z M45.5,352.5l-6.6-22.3
	l-6.4,1.9l4.6,15.4l-6.4,1.9l-4.1-13.7l-6.5,1.9l4.1,13.7l-5.9,1.8l-4.3-14.5l-6.4,1.9l6.4,21.5L45.5,352.5L45.5,352.5z M61.6,389.7
	l-3.2-6.5l-11.5,5.7l-6.1-12.3l-6,3l6.1,12.3l-6,3l-6.6-13.3l-6,3l9.9,19.9L61.6,389.7L61.6,389.7z M61.1,428.1
	c-1.3,0.3-2.7,0.4-4,0.1c-1.3-0.2-2.5-0.8-3.6-1.5c-2.4-1.7-4-4.2-4.7-7.1c-0.2-1.3-0.2-2.6,0.1-3.9c0.3-1.3,0.9-2.5,1.7-3.6
	c1.8-2.3,4.3-4,7.1-4.7c1.3-0.3,2.6-0.3,4-0.1c1.3,0.2,2.5,0.8,3.6,1.5c2.4,1.7,4,4.2,4.6,7.1c0.2,1.3,0.2,2.6-0.1,3.9
	c-0.3,1.3-0.9,2.5-1.7,3.6C66.5,425.8,63.9,427.4,61.1,428.1 M74.5,427.6c1.3-1.8,2.1-3.9,2.5-6.1c0.4-2.2,0.3-4.5-0.2-6.6
	c-1.2-4.8-4-9-7.8-11.9c-1.8-1.3-3.8-2.3-6-2.8c-2.2-0.5-4.4-0.5-6.6-0.1c-4.8,1.1-9.1,3.9-12,7.9c-1.3,1.8-2.1,3.9-2.5,6.1
	c-0.4,2.2-0.3,4.5,0.2,6.6c1.2,4.8,4,9,7.8,11.9c1.8,1.3,3.8,2.3,6,2.8c2.2,0.5,4.4,0.5,6.6,0.1C67.3,434.5,71.6,431.7,74.5,427.6
	 M72.2,457.4c0.1,1.8,0.6,3.6,1.4,5.2c0.8,1.6,1.9,3.1,3.2,4.4c1.1,1.1,2.4,2.1,3.8,2.9c1.3,0.8,2.8,1.2,4.3,1.5
	c1.5,0.2,2.9,0.1,4.4-0.4c1.5-0.5,2.9-1.4,4.1-2.5c1.2-1,2-2.4,2.4-3.9c0.3-1.3,0.2-2.6-0.1-4c-0.3-1.3-0.8-2.6-1.4-3.8
	c-0.7-1.2-1.2-2.4-1.7-3.5c-0.5-1-0.8-2-0.9-3.1c-0.1-0.9,0.2-1.8,0.9-2.5c0.4-0.4,0.9-0.7,1.4-0.8c0.5-0.1,1.1-0.1,1.6,0.1
	c0.6,0.2,1.1,0.4,1.6,0.7c1.6,1,2.7,2.5,3.3,4.2c0.4,1.2,0.5,2.4,0.3,3.6l7.7-0.3c0-2-0.5-4-1.3-5.9c-1.6-3.3-4.2-6.1-7.3-8
	c-1.3-0.8-2.8-1.3-4.3-1.5c-1.5-0.2-3-0.1-4.4,0.4c-1.6,0.5-3,1.4-4.2,2.6c-1.2,1.1-2.1,2.5-2.5,4c-0.3,1.3-0.3,2.6,0,4
	c0.3,1.3,0.8,2.6,1.4,3.7c0.7,1.2,1.2,2.3,1.8,3.4c0.5,0.9,0.8,1.9,1,3c0.2,0.9-0.2,1.8-0.9,2.4c-0.4,0.4-0.9,0.7-1.5,0.8
	c-0.5,0.1-1.1,0-1.6-0.1c-0.5-0.2-1.1-0.4-1.5-0.7c-0.5-0.3-0.9-0.6-1.3-1c-0.7-0.7-1.2-1.5-1.6-2.4c-0.4-0.9-0.6-1.9-0.5-2.9
	L72.2,457.4L72.2,457.4z M109.3,486.9l-3.7-3c-0.5-0.4-1-0.9-1.5-1.4c-0.4-0.5-0.8-1-1.1-1.6c-0.2-0.5-0.3-1.1-0.3-1.7
	c0.1-0.7,0.4-1.4,0.9-1.9c0.4-0.6,1.1-1.1,1.8-1.3c0.6-0.1,1.2-0.1,1.8,0.1c0.7,0.2,1.3,0.5,1.8,0.9c0.6,0.4,1.2,0.8,1.7,1.2
	l3.3,2.7L109.3,486.9L109.3,486.9z M131.8,470.5l-5.7-4.6l-8.3,10.3l-2.8-2.2l2.9-14.6l-6.8-5.5L109,470c-1.8-1.1-4-1.4-6.1-0.9
	c-2.1,0.6-3.9,1.8-5.2,3.5c-1.1,1.3-1.9,2.8-2.2,4.4c-0.3,1.4-0.2,2.8,0.2,4.1c0.4,1.4,1.1,2.6,2.1,3.8c1,1.2,2.2,2.4,3.4,3.4l10,8
	L131.8,470.5L131.8,470.5z M138.4,490.6l6.9,4.3l-8.9,6.6L138.4,490.6L138.4,490.6z M163.3,490.6l-6.8-4.2l-6.1,4.5l-10.9-6.8
	l1.3-7.5l-7-4.4l-5.3,35.6l5.1,3.2L163.3,490.6L163.3,490.6z M186.8,500.7l-21.3-9.3l-2.7,6.2l14.7,6.4l-2.7,6.2l-13.1-5.7l-2.7,6.2
	l13.1,5.7l-2.5,5.7l-13.9-6.1l-2.7,6.2l20.6,9L186.8,500.7L186.8,500.7z M207.7,507.6l-7-2.1l-4,13.5l-17.3,14.6l8.3,2.5l10.6-9.7
	l3.2,13.9l8.7,2.6l-6.5-21.7L207.7,507.6L207.7,507.6z M253,542.6l-4.3-0.5c-1.5-0.2-2.9-0.5-4.3-1.1c-1.3-0.5-2.4-1.2-3.4-2.2
	c-0.9-0.9-1.7-2-2.1-3.2c-0.5-1.4-0.6-2.8-0.4-4.3c0.1-1.6,0.6-3.2,1.4-4.6c0.7-1.2,1.7-2.1,2.8-2.8c1.2-0.7,2.6-1.1,3.9-1.3
	c1.6-0.2,3.1-0.2,4.7,0l3.8,0.4L253,542.6L253,542.6z M263.2,517.3l-11.8-1.3c-2.4-0.3-4.8-0.2-7.1,0.3c-2.2,0.4-4.3,1.2-6.2,2.5
	c-1.9,1.2-3.4,2.8-4.6,4.6c-1.3,2.1-2.1,4.4-2.3,6.8c-0.4,2.6-0.1,5.3,0.7,7.8c0.7,2.1,2,4,3.6,5.6c1.7,1.6,3.7,2.8,5.9,3.6
	c2.4,0.9,4.9,1.5,7.4,1.7l10.9,1.2L263.2,517.3L263.2,517.3z M300.7,516.2l-7.3,0.3l0.9,23.5h-0.1l-15.3-23l-9.5,0.4l1.3,33l7.3-0.3
	l-0.9-23h0.1l14.9,22.4l9.9-0.4L300.7,516.2L300.7,516.2z M313,547.8l7.1-1.4l-3.8-19.7c-0.2-1-0.2-1.9,0-2.9
	c0.1-0.9,0.5-1.7,0.9-2.5c0.5-0.7,1.1-1.4,1.8-1.9c0.8-0.5,1.6-0.9,2.5-1c0.9-0.2,1.8-0.2,2.7,0c0.9,0.2,1.7,0.5,2.4,1.1
	c0.7,0.5,1.3,1.2,1.8,2c0.5,0.8,0.8,1.8,1,2.7l3.8,19.7l7.1-1.4l-3.8-20c-0.3-1.8-1-3.6-1.9-5.2c-0.9-1.5-2-2.7-3.4-3.7
	c-1.4-1-3.1-1.7-4.8-2c-4.1-0.6-8.3,0.2-11.9,2.3c-1.5,0.9-2.8,2.2-3.8,3.6c-0.9,1.4-1.5,3-1.8,4.7c-0.3,1.8-0.2,3.7,0.1,5.5
	L313,547.8L313,547.8z M371,519.8c0,1.3-0.3,2.7-0.8,3.9c-0.5,1.2-1.3,2.3-2.3,3.2c-2.2,1.9-5.1,2.9-8,2.8c-1.3-0.1-2.6-0.4-3.8-1
	c-1.2-0.6-2.2-1.5-3.1-2.5c-0.9-1.1-1.6-2.4-2.1-3.8c-0.5-1.4-0.8-2.8-0.7-4.3c0-1.3,0.3-2.7,0.8-3.9c0.5-1.2,1.3-2.3,2.3-3.2
	c2.2-1.9,5.1-2.9,8-2.8c1.3,0.1,2.6,0.4,3.8,1c1.2,0.6,2.2,1.5,3.1,2.5C370,514.1,371,516.9,371,519.8 M373.8,506.7
	c-1.5-1.7-3.3-3-5.3-3.9c-2-0.9-4.2-1.4-6.5-1.4c-4.9,0-9.6,1.7-13.5,4.7c-1.7,1.4-3.1,3.2-4.2,5.2c-1,2-1.6,4.2-1.7,6.4
	c-0.1,5,1.6,9.8,4.8,13.6c1.5,1.7,3.3,3,5.3,3.9c2,0.9,4.2,1.4,6.5,1.4c4.9,0,9.6-1.7,13.5-4.8c1.7-1.4,3.1-3.2,4.2-5.2
	c1-2,1.6-4.2,1.7-6.4C378.7,515.3,377,510.5,373.8,506.7 M402.5,511.8l-4.2,2.2c-0.6,0.3-1.2,0.6-1.8,0.8c-0.6,0.2-1.2,0.3-1.9,0.4
	c-0.6,0-1.2-0.1-1.7-0.4c-0.6-0.4-1.1-0.9-1.4-1.5c-0.4-0.6-0.5-1.4-0.5-2.1c0.1-0.6,0.4-1.2,0.8-1.6c0.5-0.5,1-1,1.6-1.3
	c0.6-0.4,1.2-0.7,1.8-1l3.8-2L402.5,511.8L402.5,511.8z M396.4,484.6L390,488l6.2,11.7l-3.2,1.7l-12.3-8.5l-7.7,4.1l14,8.4
	c-1.7,1.2-2.9,3.1-3.3,5.2c-0.3,2.1,0.1,4.3,1.2,6.1c0.7,1.5,1.8,2.8,3.1,3.8c1.1,0.8,2.5,1.3,3.8,1.5c1.4,0.1,2.9,0,4.3-0.4
	c1.5-0.4,3-1,4.5-1.8l11.3-6L396.4,484.6L396.4,484.6z M417.5,486.7l6.6-4.6l2.5,10.7L417.5,486.7z M427.4,463.8l-6.6,4.6l1.7,7.3
	L412,483l-6.3-4.1l-6.8,4.7l30.6,19l5-3.4L427.4,463.8L427.4,463.8z M460.3,475c1.8-0.1,3.6-0.6,5.2-1.5c1.6-0.9,3.1-2,4.4-3.3
	c1.1-1.1,2.1-2.4,2.8-3.9c0.7-1.3,1.2-2.8,1.4-4.3c0.2-1.5,0-3-0.5-4.4c-0.5-1.5-1.4-2.9-2.6-4c-1.1-1.1-2.5-1.9-4-2.3
	c-1.3-0.2-2.7-0.2-3.9,0.2c-1.3,0.4-2.6,0.9-3.8,1.5c-1.2,0.7-2.4,1.3-3.5,1.8c-1,0.5-2,0.8-3.1,1c-0.9,0.1-1.9-0.2-2.5-0.8
	c-0.4-0.4-0.7-0.9-0.8-1.4c-0.1-0.5-0.1-1.1,0-1.6c0.1-0.6,0.4-1.1,0.7-1.6c0.3-0.5,0.7-1,1.1-1.4c0.9-0.9,1.9-1.5,3-2
	c1.2-0.4,2.4-0.6,3.6-0.4l-0.5-7.7c-2,0.1-4,0.6-5.9,1.5c-3.3,1.7-6,4.3-7.8,7.5c-0.7,1.3-1.2,2.8-1.4,4.3c-0.2,1.5,0,3,0.5,4.4
	c0.6,1.6,1.5,3,2.7,4.1c1.1,1.2,2.5,2,4.1,2.4c1.3,0.3,2.7,0.2,4-0.1s2.5-0.9,3.7-1.5c1.2-0.7,2.3-1.3,3.4-1.8
	c0.9-0.5,1.9-0.9,2.9-1.1c0.9-0.2,1.8,0.1,2.4,0.8c0.4,0.4,0.7,0.9,0.8,1.4c0.1,0.5,0.1,1.1-0.1,1.6c-0.2,0.5-0.4,1.1-0.7,1.5
	c-0.3,0.5-0.6,0.9-1,1.3c-0.7,0.7-1.5,1.3-2.4,1.7c-0.9,0.5-1.9,0.6-2.9,0.6L460.3,475L460.3,475z M471.6,416.6L457,434.7l5.2,4.2
	l10-12.5l5.2,4.2l-9,11.2l5.2,4.2l9-11.2l4.8,3.9l-9.5,11.8l5.2,4.2l14.1-17.5L471.6,416.6L471.6,416.6z M483.5,397.7l-3,5
	l21.5,28.6l4-6.7l-14.4-18.2l0-0.1l22.8,4l4.2-7.1L483.5,397.7L483.5,397.7z M497.3,370.8l-8.8,18.8l6.1,2.8l5.7-12.2l23.9,11.1
	l3.1-6.6L497.3,370.8L497.3,370.8z M527.7,347.2c1.1,0.8,1.9,1.9,2.6,3c0.6,1.2,1,2.5,1.1,3.8c0.2,2.9-0.8,5.8-2.6,8
	c-0.9,1-1.9,1.8-3.1,2.4c-1.2,0.6-2.5,0.9-3.9,0.9c-2.9,0.1-5.8-0.9-8.1-2.6c-1-0.8-1.9-1.9-2.5-3c-0.6-1.2-1-2.5-1.1-3.8
	c-0.2-2.9,0.8-5.8,2.6-8c0.9-1,1.9-1.8,3.1-2.4c1.2-0.6,2.5-0.9,3.8-0.9C522.6,344.5,525.4,345.4,527.7,347.2 M519,337.1
	c-2.2,0.1-4.4,0.8-6.4,1.8c-2,1.1-3.7,2.5-5,4.3c-3,3.9-4.5,8.7-4.4,13.6c0.1,2.2,0.6,4.4,1.6,6.5c1,2,2.4,3.8,4.1,5.2
	c3.9,3.1,8.7,4.7,13.7,4.4c2.2-0.1,4.4-0.8,6.4-1.8c2-1.1,3.7-2.5,5-4.3c3-3.9,4.5-8.7,4.4-13.6c-0.1-2.2-0.6-4.4-1.6-6.5
	c-1-2-2.4-3.8-4.1-5.2C528.8,338.4,524,336.8,519,337.1 M513.7,314.3l-1,5.8l30.4,18.9l1.3-7.7l-20-11.7l0-0.1l22.7-4.5l1.4-8.2
	L513.7,314.3L513.7,314.3z M517,276.1l-0.9,23.3l6.7,0.3l0.6-16l6.7,0.3l-0.5,14.3l6.7,0.3l0.5-14.3l6.2,0.2l-0.6,15.2l6.7,0.3
	l0.8-22.4L517,276.1L517,276.1z M542.8,251.7l0.3,4.7c0,0.7,0,1.3,0,2c0,0.6-0.2,1.3-0.4,1.9c-0.2,0.5-0.6,1-1.1,1.4
	c-0.6,0.4-1.3,0.6-2,0.6c-0.7,0.1-1.5-0.1-2.1-0.5c-0.5-0.4-0.9-0.8-1.2-1.4c-0.3-0.6-0.5-1.3-0.5-2c-0.1-0.7-0.2-1.4-0.2-2.1
	l-0.3-4.3L542.8,251.7z M515.5,246.1l0.5,7.3l13.2-0.8l0.2,3.6l-12.8,7.7l0.5,8.7l13.4-9.3c0.4,2.1,1.7,3.9,3.4,5.1
	c1.8,1.1,3.9,1.6,6,1.4c1.7,0,3.3-0.5,4.8-1.3c1.2-0.7,2.2-1.7,2.9-2.9c0.7-1.2,1.2-2.6,1.4-4.1c0.2-1.6,0.3-3.2,0.2-4.8l-0.8-12.8
	L515.5,246.1L515.5,246.1z M525.9,196.6c1.3,0.1,2.6,0.5,3.8,1.1c1.2,0.6,2.2,1.5,3,2.6c1.7,2.4,2.5,5.3,2.2,8.2
	c-0.2,1.3-0.6,2.6-1.3,3.7c-0.7,1.1-1.6,2.1-2.7,2.9c-2.4,1.6-5.3,2.4-8.2,2.2c-1.3-0.1-2.6-0.5-3.8-1.1c-1.2-0.6-2.2-1.5-3-2.6
	c-1.7-2.4-2.5-5.3-2.2-8.2c0.2-1.3,0.6-2.6,1.3-3.7c0.7-1.1,1.6-2.1,2.7-2.9C520,197.1,522.9,196.3,525.9,196.6 M513,192.8
	c-1.8,1.4-3.3,3.1-4.3,5c-1.1,2-1.7,4.1-1.9,6.4c-0.4,4.9,1,9.8,3.7,13.8c1.3,1.8,2.9,3.4,4.8,4.6c1.9,1.1,4,1.9,6.3,2.1
	c4.9,0.5,9.9-0.8,13.9-3.8c1.8-1.4,3.2-3.1,4.3-5c1-2,1.7-4.1,1.9-6.4c0.3-4.9-1-9.8-3.7-13.8c-1.3-1.8-2.9-3.4-4.8-4.5
	c-1.9-1.1-4-1.9-6.3-2.1C521.9,188.5,517,189.9,513,192.8 M517.3,159.8l1.7,3.9c0.6,1.4,1,2.8,1.2,4.2c0.2,1.3,0.2,2.7-0.2,4
	c-0.3,1.3-0.9,2.4-1.7,3.4c-1,1.1-2.2,2-3.5,2.5c-1.5,0.7-3.1,1.1-4.7,1.1c-1.4,0-2.7-0.4-3.9-1c-1.2-0.7-2.2-1.6-3.1-2.8
	c-0.9-1.3-1.7-2.6-2.4-4.1l-1.5-3.5L517.3,159.8L517.3,159.8z M490.3,163.7l4.8,10.9c1,2.2,2.2,4.2,3.8,6c1.5,1.7,3.3,3.1,5.3,4.2
	c2,1,4.1,1.6,6.3,1.7c2.4,0.1,4.9-0.4,7.1-1.4c2.5-1,4.7-2.5,6.4-4.5c1.5-1.7,2.5-3.7,3-5.9c0.5-2.3,0.5-4.6,0.1-6.9
	c-0.4-2.5-1.2-4.9-2.2-7.3l-4.4-10L490.3,163.7z M467.6,128.3l13.3,19.1l5.5-3.8l-9.1-13.2l5.5-3.8l8.2,11.8l5.5-3.8l-8.2-11.8
	l5.1-3.5l8.6,12.5l5.5-3.8l-12.8-18.5L467.6,128.3L467.6,128.3z M441.1,98.6l4.3,4.6l21.7-10.3l0.1,0.1l-11.8,20.9l4.4,4.8
	l30.8-15.4l-5-5.4l-19.7,10.8l-0.1-0.1L477,88.6l-4.6-4.9l-20.2,9.4l-0.1-0.1L464,74.7l-5.4-5.8L441.1,98.6L441.1,98.6z M432.3,65.6
	l-10.8-7.1l-3.7,5.6l5,3.3l-3,4.5c-1-0.1-2-0.3-2.9-0.6c-1.3-0.4-2.6-1-3.7-1.8c-1.2-0.8-2.3-1.8-3.1-3c-0.8-1.1-1.2-2.3-1.5-3.6
	c-0.2-1.3-0.2-2.7,0.1-4c0.7-2.8,2.4-5.3,4.7-7.1c1.1-0.8,2.3-1.4,3.6-1.7c1.3-0.3,2.6-0.3,3.9-0.1c1.4,0.3,2.8,0.8,4,1.7
	c1.4,0.8,2.5,1.9,3.5,3.2c0.8,1.2,1.3,2.4,1.5,3.8l7.4-1.9c-0.5-2.2-1.6-4.2-3.1-6c-1.6-1.9-3.5-3.5-5.6-4.8c-2-1.4-4.3-2.3-6.6-2.9
	c-2.2-0.5-4.4-0.6-6.6-0.2c-2.2,0.4-4.3,1.3-6.1,2.5c-4,2.9-6.8,7.2-7.9,12c-0.4,2.2-0.4,4.5,0.1,6.6c0.5,2.2,1.5,4.2,2.8,6
	c1.5,1.9,3.2,3.6,5.3,4.9c2,1.3,4.1,2.4,6.4,3.3c2.2,0.9,4.6,1.4,7,1.7L432.3,65.6L432.3,65.6z M362.8,49.1l6.6,3.1l10-21.3l0.1,0
	l3.1,27.4l8.6,4l14-30l-6.6-3.1l-9.7,20.8l-0.1,0l-3-26.8l-9-4.2L362.8,49.1L362.8,49.1z M350,45l6.9,2.4l11-31.2l-6.9-2.4L350,45z
	 M316.3,36.2l7.1,1.7l3.4-13.9l13.7,3.4l-3.4,13.9l7.1,1.7l7.8-32.1L345,9.1l-2.9,12l-13.8-3.4l2.9-12L324.2,4L316.3,36.2
	L316.3,36.2z M296.9,34.1l7.2,0.8l3-26.4l9.4,1.1l0.7-6.4l-26-3l-0.7,6.4l9.4,1.1L296.9,34.1L296.9,34.1z M267.1,33.3l7.3-0.1
	l-0.2-14.1L286.3,0l-8.6,0.1l-7.3,12.5l-7.2-12.3l-9.1,0.1l12.7,18.8L267.1,33.3L267.1,33.3z M233.6,9.4l4.7-0.7
	c0.7-0.1,1.3-0.1,2-0.1c0.6,0,1.3,0.1,1.9,0.3c0.6,0.2,1.1,0.5,1.4,0.9c0.4,0.5,0.7,1.2,0.8,1.9c0.1,0.7,0.1,1.5-0.3,2.2
	c-0.3,0.5-0.8,1-1.3,1.3c-0.6,0.3-1.2,0.6-1.9,0.7c-0.7,0.2-1.4,0.3-2.1,0.4l-4.3,0.6C234.7,16.9,233.6,9.4,233.6,9.4z M230.1,37.1
	l7.2-1L235.5,23l3.6-0.5l8.7,12.1l8.6-1.2l-10.3-12.7c2.1-0.6,3.8-2,4.8-3.8c1-1.9,1.3-4.1,1-6.1c-0.2-1.7-0.8-3.2-1.7-4.7
	c-0.8-1.1-1.9-2.1-3.1-2.7c-1.3-0.6-2.7-1-4.2-1.1c-1.6-0.1-3.2,0-4.8,0.2l-12.7,1.8L230.1,37.1L230.1,37.1z M202.5,44l22.5-6.1
	l-1.8-6.5l-15.5,4.2l-1.8-6.5l13.8-3.7l-1.8-6.5l-13.8,3.7l-1.6-6l14.6-4l-1.8-6.5l-21.7,5.9L202.5,44L202.5,44z M181.6,51.8
	l5.4-2.2l0.1-35.8l-7.2,3l0.5,23.2l-0.1,0l-15.8-17l-7.7,3.1L181.6,51.8L181.6,51.8z M147.5,69.2l20.3-11.4l-3.3-5.9l-14,7.8
	l-3.3-5.9l12.5-7l-3.3-5.9L144,48l-3-5.4l13.2-7.4l-3.3-5.9l-19.6,11L147.5,69.2L147.5,69.2z"/>
</svg>
